<svg xmlns="http://www.w3.org/2000/svg" xmlns:xlink="http://www.w3.org/1999/xlink" width="2000" zoomAndPan="magnify" viewBox="0 0 1500 1499.999933" height="2000" preserveAspectRatio="xMidYMid meet" version="1.0"><defs><clipPath id="9766042780"><path d="M 575 846 L 925 846 L 925 873.703125 L 575 873.703125 Z M 575 846 " clip-rule="nonzero"/></clipPath><clipPath id="5332a1e09f"><path d="M 487 512.203125 L 1013 512.203125 L 1013 836 L 487 836 Z M 487 512.203125 " clip-rule="nonzero"/></clipPath></defs><g clip-path="url(#9766042780)"><path fill="#000000" d="M 575.058594 846.414062 L 924.210938 846.414062 L 924.210938 873.289062 L 575.058594 873.289062 Z M 575.058594 846.414062 " fill-opacity="1" fill-rule="nonzero"/></g><g clip-path="url(#5332a1e09f)"><path fill="#000000" d="M 844.929688 664.457031 L 749.738281 512.125 L 656.175781 664.457031 L 487.710938 575.03125 L 575.058594 835.691406 L 924.097656 835.691406 C 924.097656 835.691406 1011.09375 576.832031 1012.460938 574.160156 C 1009.867188 576.867188 844.929688 664.457031 844.929688 664.457031 Z M 750.09375 599.730469 L 804.015625 687.722656 L 749.851562 716.367188 L 695.125 687.722656 Z M 595.796875 757.792969 L 566.074219 669.753906 L 628.753906 702.710938 Z M 634.277344 788.433594 L 672.066406 726.894531 L 750.125 769.484375 L 826.960938 726.894531 L 866.003906 788.433594 Z M 900.914062 758.9375 L 867.953125 703.855469 L 930.636719 670.898438 Z M 900.914062 758.9375 " fill-opacity="1" fill-rule="nonzero"/></g></svg>